<svg id="图层_1" data-name="图层 1" xmlns="http://www.w3.org/2000/svg" viewBox="0 0 264.29 71.61"><defs><style>.cls-1{fill:none;stroke:#000;stroke-miterlimit:10;}.cls-2{fill:#1b1464;}</style></defs><title>fish</title><path class="cls-1" d="M393.58,297.08" transform="translate(-347.2 -237.69)"/><path class="cls-2" d="M560.24,291.81a16.6,16.6,0,0,1-4.77,1.62" transform="translate(-347.2 -237.69)"/><path class="cls-2" d="M611.48,257.39l-12.35,12.7c-14.33,11.83-28.19,17.37-38.84,21.7h0l0,0-0.39.15c-1.05.43-2.54,0.93-4.38,1.47h0c-12.17,2.68-42,3.48-78,1.91l-4.47,8a1.92,1.92,0,0,1-2.82.22l-12-9.21c-6.25-.39-12.61-0.86-19-1.39q-7.29-.6-13.93-1.28l-0.76,15.85c-0.09,1.81-1.92,2.46-2.83,1-2.22-3.51-5.91-9.49-11.15-18.56-45.66-5.94-64.52-15.27-63.1-27.2s21.73-17.52,66.17-11.92c9.36-6.3,15.8-10.42,19.68-12.84,1.64-1,3.41.88,2.75,2.5L430.26,255h0a68.25,68.25,0,0,1,13.18,1.68c7.35,1.47,14.51,2.58,21.44,4.18l3-1.4,10.62-4.27c1.16-.45,2.43,0,2.65.94l2,8.61c28.46,7,51.53,14.11,65,19h0c9.73,0.79,19.35-.76,28-7.32,6.87-5.24,21.68-19,22.25-19.52l-5,9.59,9.92-6C603.83,260.21,611.82,256.91,611.48,257.39Z" transform="translate(-347.2 -237.69)"/><polyline class="cls-2" points="251.3 19.25 251.3 19.24 251.31 19.24 251.31 19.23"/><path class="cls-2" d="M598.33,256.93h0.17" transform="translate(-347.2 -237.69)"/><path class="cls-2" d="M547.81,283.76h0.44" transform="translate(-347.2 -237.69)"/></svg>